# xmcd CD database file
#
# Track frame offsets:
#	150
#	13195
#	25342
#	37002
#	50455
#	62550
#	75125
#	87415
#	100390
#	111670
#	122215
#	135840
#	147615
#	160082
#	170275
#	181625
#	190732
#	201315
#	213975
#	224937
#	234612
#	247315
#	256740
#	267992
#	278065
#	290252
#	300970
#	314955
#
# Disc length: 4337 seconds
#
# Revision: 2
# Processed by: cddbd v1.5.1PL0 Copyright (c) Steve Scherf et al.
# Submitted via: CDex 1.51
#
DISCID=a410ef1c
DTITLE=Rudy Grayzell - Ducktail
DYEAR=1900
DGENRE=
TTITLE0=Looking At The Moon 1953
TTITLE1=The Heart That Once Was Mine 1953
TTITLE2=Bonita Chiquita 1953
TTITLE3=I'm Gone Again 1953
TTITLE4=It Ain't My Baby (And I Ain't Gonna Rock It) 1954
TTITLE5=Ocean Paradise 1954
TTITLE6=There's Gonna Be A Ball 1955
TTITLE7=Hearts Of Stone 1955
TTITLE8=Ca-Razy 1955
TTITLE9=You Better Believe It 1955
TTITLE10=Please Big Mama 1955
TTITLE11=My Spirit Is Willing 1955
TTITLE12=Rhe Moon Is Up (The Stars Are Out) 1956
TTITLE13=Day By Day 1956
TTITLE14=Ducktail 1956
TTITLE15=You're Gone 1956
TTITLE16=Jig-Ga-Lee-Ga 1956
TTITLE17=You Hurt Me So 1956
TTITLE18=Let's Get Wild 1956
TTITLE19=I Love You So 1956
TTITLE20=Let's Get Wild (Uniss. Master) 1956
TTITLE21=Judi 1957
TTITLE22=I Think Of You 1957
TTITLE23=Judy (2 Sun Alt. Take) 1957
TTITLE24=Let's Get Wild (Alt. Starday Take) 1957
TTITLE25=Remember When 1957
TTITLE26=F-B-I Story 1958
TTITLE27=You'll Be Mine 1958
EXTD=
EXTT0=
EXTT1=
EXTT2=
EXTT3=
EXTT4=
EXTT5=
EXTT6=
EXTT7=
EXTT8=
EXTT9=
EXTT10=
EXTT11=
EXTT12=
EXTT13=
EXTT14=
EXTT15=
EXTT16=
EXTT17=
EXTT18=
EXTT19=
EXTT20=
EXTT21=
EXTT22=
EXTT23=
EXTT24=
EXTT25=
EXTT26=
EXTT27=
PLAYORDER=
